# AST/ASF file generated using VICON BodyLanguage
# -----------------------------------------------
:version 1.10
:name VICON
:units
  mass 1.0
  length 0.45
  angle deg
:documentation
   .ast/.asf automatically generated from VICON data using
   VICON BodyBuilder and BodyLanguage model FoxedUp or BRILLIANT.MOD
:root
   order TX TY TZ RX RY RZ
   axis XYZ
   position 0 0 0  
   orientation 0 0 0 
:bonedata
  begin
     id 1 
     name lhipjoint
     direction 0.62366 -0.717238 0.310833 
     length 2.53602 
     axis 0 0 0  XYZ
  end
  begin
     id 2 
     name lfemur
     direction 0.34202 -0.939693 0  
     length 7.40817  
     axis 0 0 20  XYZ
    dof rx ry rz
    limits (-160.0 20.0)
           (-70.0 70.0)
           (-60.0 70.0)
  end
  begin
     id 3 
     name ltibia
     direction 0.34202 -0.939693 0   
     length 7.7045   
     axis 0 0 20   XYZ
    dof rx
    limits (-10.0 170.0)
  end
  begin
     id 4 
     name lfoot
     direction 0.0673888 -0.185149 0.980397   
     length 2.09456   
     axis -90 7.62852e-016 20   XYZ
    dof rx rz
    limits (-45.0 90.0)
           (-70.0 20.0)
  end
  begin
     id 5 
     name ltoes
     direction 1.53575e-011 -4.21994e-011 1   
     length 1.05543   
     axis -90 7.62852e-016 20   XYZ
    dof rx
    limits (-90.0 20.0)
  end
  begin
     id 6 
     name rhipjoint
     direction -0.489018 -0.800347 0.346851   
     length 2.27268  
     axis 0 0 0  XYZ 
  end
  begin
     id 7 
     name rfemur
     direction -0.34202 -0.939693 0   
     length 7.55487   
     axis 0 0 -20   XYZ
    dof rx ry rz
    limits (-160.0 20.0)
           (-70.0 70.0)
           (-70.0 60.0)
  end
  begin
     id 8 
     name rtibia
     direction -0.34202 -0.939693 0   
     length 7.78969   
     axis 0 0 -20   XYZ
    dof rx
    limits (-10.0 170.0)
 end
 begin
     id 9 
     name rfoot
     direction -0.0859318 -0.236096 0.967923   
     length 2.19143  
     axis -90 -7.62852e-016 -20   XYZ
    dof rx rz
    limits (-45.0 90.0)
           (-20.0 70.0)
  end
  begin
     id 10 
     name rtoes
     direction -1.53538e-011 -4.21989e-011 1   
     length 1.09845   
     axis -90 -7.62852e-016 -20   XYZ
    dof rx
    limits (-90.0 20.0)
  end
  begin
     id 11 
     name lowerback
     direction -0.00762546 0.998978 -0.0445553   
     length 1.98161   
     axis 0 0 0   XYZ
    dof rx ry rz
    limits (-20.0 45.0)
           (-30.0 30.0)
           (-30.0 30.0)
  end
  begin
     id 12 
     name upperback
     direction 0.0422361 0.998867 -0.0219156   
     length 1.97558   
     axis 0 0 0   XYZ
    dof rx ry rz
    limits (-20.0 45.0)
           (-30.0 30.0)
           (-30.0 30.0)
  end
  begin
     id 13 
     name thorax
     direction 0.0442465 0.999021 7.47603e-005   
     length 1.97799   
     axis 0 0 0   XYZ
    dof rx ry rz
    limits (-20.0 45.0)
           (-30.0 30.0)
           (-30.0 30.0)
  end
  begin
     id 14 
     name lowerneck
     direction 0.00312169 0.984641 0.174564   
     length 1.78995   
     axis 0 0 0   XYZ
    dof rx ry rz
    limits (-20.0 45.0)
           (-30.0 30.0)
           (-30.0 30.0)
  end
  begin
     id 15 
     name upperneck
     direction -0.0383028 0.985255 -0.166749   
     length 1.83053   
     axis 0 0 0   XYZ
    dof rx ry rz
    limits (-20.0 45.0)
           (-30.0 30.0)
           (-30.0 30.0)
  end
  begin
     id 16
     name head
     direction -0.0129546 0.997059 -0.0755386  
     length 1.84088  
     axis 0 0 0   XYZ
    dof rx ry rz
    limits (-20.0 45.0)
           (-30.0 30.0)
           (-30.0 30.0)
  end
  begin
     id 17 
     name lclavicle
     direction 0.912857 0.370519 -0.171488  
     length 3.51279  
     axis 0 0 0   XYZ
    dof ry rz
    limits (-20.0 10.0)
           (0.0 20.0)
  end
  begin
     id 18 
     name lhumerus
     direction 1 -4.48962e-011 3.64361e-027   
     length 4.95663   
     axis 180 -30 -90   XYZ
    dof rx ry rz
    limits (-60.0 90.0)
           (-90.0 90.0)
           (-90.0 90.0)
  end
  begin
     id 19
     name lradius
     direction 1 -4.48974e-011 5.97202e-027   
     length 3.38177   
     axis 180 -30 -90   XYZ
    dof rx
    limits (-10.0 170.0)
  end
  begin
     id 20
     name lwrist
     direction 1 -4.4896e-011 9.83288e-027   
     length 1.69088   
     axis -9.31221e-015 90 90   XYZ
    dof ry
    limits (-180.0 0.0)
 end
  begin
     id 21 
     name lhand
     direction 1 -4.4902e-011 1.96551e-026   
     length 0.662909   
     axis -1.25475e-014 90 90   XYZ
    dof rx rz
    limits (-90.0 90.0)
           (-45.0 45.0)
  end
  begin
     id 22 
     name lfingers
     direction 1 -4.48971e-011 3.93277e-026   
     length 0.534454   
     axis -2.50945e-014 90 90   XYZ
    dof rx
    limits (0.0 90.0)
  end
  begin
     id 23
     name lthumb
     direction 0.707107 -6.34933e-011 0.707107   
     length 0.767373   
     axis -90 45 -4.80359e-014   XYZ
    dof rx rz
    limits (-45.0 45.0)
           (-45.0 45.0)
  end
  begin
     id 24 
     name rclavicle
     direction -0.900919 0.395364 -0.178976   
     length 3.40627  
     axis 0 0 0   XYZ 
    dof ry rz
    limits (-10.0 20.0)
           (-20.0 0.0)
  end
  begin
     id 25 
     name rhumerus
     direction -1 -4.48969e-011 1.03875e-027  
     length 5.08365   
     axis 180 30 90   XYZ
    dof rx ry rz
    limits (-90.0 60.0)
           (-90.0 90.0)
           (-90.0 90.0)
  end
  begin
     id 26 
     name rradius
     direction -1 -4.48951e-011 5.02733e-027   
     length 3.35984   
     axis 180 30 90   XYZ
    dof rx
    limits (-10.0 170.0)
  end
  begin
     id 27 
     name rwrist
     direction -1 -4.49011e-011 9.82828e-027   
     length 1.67992   
     axis -9.31221e-015 -90 -90   XYZ
    dof ry
    limits (-180.0 0.0)
  end
  begin
     id 28
     name rhand
     direction -1 -4.48894e-011 1.96774e-026   
     length 0.820764   
     axis -1.25475e-014 -90 -90   XYZ
    dof rx rz
    limits (-90.0 90.0)
           (-45.0 45.0)
  end
  begin
     id 29
     name rfingers
     direction -1 -4.49095e-011 3.92833e-026   
     length 0.661721   
     axis -2.50945e-014 -90 -90   XYZ
    dof rx
    limits (0.0 90.0)
  end
  begin
     id 30
     name rthumb
     direction -0.707107 -6.34881e-011 0.707107   
     length 0.950103   
     axis -90 -45 4.80359e-014   XYZ
    dof rx rz
    limits (-45.0 45.0)
           (-45.0 45.0)
  end
:hierarchy
  begin
    root lhipjoint rhipjoint lowerback
    lhipjoint lfemur
    lfemur ltibia
    ltibia lfoot
    lfoot ltoes
    rhipjoint rfemur
    rfemur rtibia
    rtibia rfoot
    rfoot rtoes
    lowerback upperback
    upperback thorax
    thorax lowerneck lclavicle rclavicle
    lowerneck upperneck
    upperneck head
    lclavicle lhumerus
    lhumerus lradius
    lradius lwrist
    lwrist lhand lthumb
    lhand lfingers
    rclavicle rhumerus
    rhumerus rradius
    rradius rwrist
    rwrist rhand rthumb
    rhand rfingers
  end

#!OML:ASF I:\golf\golf\golf 2\Subject 1\2002-09-07\Subject1.ASF
:FULLY-SPECIFIED
:DEGREES
79
root -6.5187 17.7533 0.129461 -80.9427 87.1098 -98.4568
lowerback 3.03665 2.15238 -1.24419
upperback 3.43018 2.9268 4.54876
thorax 1.53153 1.44161 5.3494
lowerneck -16.1019 -1.87173 1.07124
upperneck 39.3902 0.434112 -4.28656
head 17.065 0.296033 -1.87364
rclavicle 7.15625e-015 1.19271e-014
rhumerus -6.8832 -2.62882 -101.784
rradius 23.0465
rwrist -39.9565
rhand -12.6645 -2.73044
rfingers 7.12502
rthumb 13.4166 -32.2784
lclavicle 7.15625e-015 1.19271e-014
lhumerus -10.3039 -56.3128 110.664
lradius 23.8559
lwrist 35.2777
lhand -10.6484 74.8827
lfingers 7.12502
lthumb -164.641 75.7077
rfemur -31.5342 -3.40445 11.6988
rtibia 30.1392
rfoot -8.975 -12.0958
rtoes -4.262
lfemur -31.7428 10.5021 -11.5049
ltibia 31.9579
lfoot -12.3091 -1.62372
ltoes -23.0751
80
root -6.52136 17.75 0.1292 -81.7707 87.0627 -99.3038
lowerback 3.05711 2.14524 -1.22072
upperback 3.42014 2.91982 4.61369
thorax 1.50841 1.4394 5.4032
lowerneck -16.0414 -1.85371 1.06943
upperneck 39.3206 0.488892 -4.36538
head 17.0144 0.306649 -1.89604
rclavicle 4.37326e-014 2.70347e-014
rhumerus -7.00219 -2.69379 -101.676
rradius 23.2372
rwrist -39.9554
rhand -12.1136 -2.80573
rfingers 7.12502
rthumb 13.9475 -32.3179
lclavicle 4.37326e-014 2.70347e-014
lhumerus -10.3403 -57.2382 110.563
lradius 23.9772
lwrist 34.9374
lhand -10.4019 74.6558
lfingers 7.12502
lthumb -164.403 75.953
rfemur -31.6038 -3.56254 11.7847
rtibia 30.2167
rfoot -9.02548 -11.8921
rtoes -3.56246
lfemur -31.8162 10.5625 -11.4718
ltibia 31.9974
lfoot -12.3217 -1.71896
ltoes -23.1331
81
root -6.52448 17.7482 0.128893 -81.6376 87.0418 -99.1862
lowerback 3.07434 2.15775 -1.14021
upperback 3.42139 2.93837 4.60813
thorax 1.50216 1.45059 5.35037
lowerneck -15.9436 -1.85998 1.11795
upperneck 39.1989 0.465614 -4.40978
head 16.9214 0.296066 -1.92465
rclavicle 1.31198e-014 -2.22639e-014
rhumerus -7.12653 -2.4874 -101.673
rradius 23.5285
rwrist -40.5861
rhand -12.1725 -2.79518
rfingers 7.12502
rthumb 13.8907 -32.3113
lclavicle 1.31198e-014 -2.22639e-014
lhumerus -10.2719 -58.1797 110.302
lradius 24.0086
lwrist 34.2945
lhand -10.2457 74.0063
lfingers 7.12502
lthumb -164.253 76.6143
rfemur -31.6893 -3.64978 11.8347
rtibia 30.2965
rfoot -8.9745 -11.7958
rtoes -3.71888
lfemur -31.878 10.6166 -11.4611
ltibia 32.0347
lfoot -12.3184 -1.74621
ltoes -23.114
82
root -6.527 17.7466 0.129772 -79.2573 87.157 -96.7793
lowerback 3.105 2.19317 -1.16748
upperback 3.45536 2.98313 4.52552
thorax 1.51833 1.4717 5.27771
lowerneck -15.8812 -1.86742 1.13648
upperneck 39.0968 0.427934 -4.39719
head 16.8478 0.282254 -1.92598
rclavicle -2.14687e-014 -2.06736e-014
rhumerus -7.2025 -2.29158 -101.815
rradius 23.8192
rwrist -41.4616
rhand -12.9075 -2.66249
rfingers 7.12502
rthumb 13.1823 -32.2257
lclavicle -2.14687e-014 -2.06736e-014
lhumerus -10.1372 -59.239 109.945
lradius 24.0305
lwrist 33.925
lhand -10.0461 73.9458
lfingers 7.12502
lthumb -164.061 76.6901
rfemur -31.7516 -3.55312 11.6885
rtibia 30.3768
rfoot -8.93049 -11.7737
rtoes -4.06474
lfemur -31.8597 10.6874 -11.5823
ltibia 32.0802
lfoot -12.3189 -1.77617
ltoes -22.7348
83
root -6.52829 17.7419 0.13187 -76.3588 87.1523 -93.8126
lowerback 3.16942 2.23218 -1.15582
upperback 3.49975 3.0359 4.51696
thorax 1.52391 1.49819 5.25924
lowerneck -15.8786 -1.86226 1.09173
upperneck 39.0678 0.443836 -4.38937
head 16.8326 0.281939 -1.91087
rclavicle -4.77083e-015 2.38542e-014
rhumerus -7.28213 -2.35165 -101.903
rradius 24.0633
rwrist -41.5747
rhand -13.4372 -2.78229
rfingers 7.12502
rthumb 12.6718 -32.3779
lclavicle -4.77083e-015 2.38542e-014
lhumerus -9.93614 -60.4692 109.583
lradius 23.9864
lwrist 33.8254
lhand -9.4837 74.1392
lfingers 7.12502
lthumb -163.519 76.5408
rfemur -31.7752 -3.42891 11.6692
rtibia 30.4676
rfoot -8.97743 -11.6721
rtoes -3.906
lfemur -31.776 10.8422 -11.5855
ltibia 32.1301
lfoot -12.365 -1.7793
ltoes -22.769
84
root -6.53 17.737 0.135695 -73.3425 87.0004 -90.7339
lowerback 3.24852 2.29121 -1.05653
upperback 3.53043 3.11903 4.5598
thorax 1.50586 1.54257 5.24287
lowerneck -15.8887 -1.84919 1.0488
upperneck 39.0756 0.471783 -4.36874
head 16.8412 0.289925 -1.88909
rclavicle 3.89618e-014 7.79236e-014
rhumerus -7.44045 -2.41273 -101.922
rradius 24.3497
rwrist -41.4387
rhand -13.6493 -3.13223
rfingers 7.12502
rthumb 12.4672 -32.7404
lclavicle 3.89618e-014 7.79236e-014
lhumerus -9.73924 -62.2075 109.249
lradius 23.9454
lwrist 34.2604
lhand -8.45615 73.3921
lfingers 7.12502
lthumb -162.53 77.3729
rfemur -31.8209 -3.29326 11.8194
rtibia 30.58
rfoot -9.0235 -11.5404
rtoes -4.18583
lfemur -31.7 11.0842 -11.4483
ltibia 32.1926
lfoot -12.447 -1.72897
ltoes -23.3767
